<svg xmlns="http://www.w3.org/2000/svg" viewBox="0 0 130.9 176.53"><defs><style>.cls-1{fill:#1ed760;}</style></defs><g id="Layer_2" data-name="Layer 2"><g id="Layer_1-2" data-name="Layer 1"><path class="cls-1" d="M130.51,59a8.15,8.15,0,0,0-4.65-4.61,29.6,29.6,0,0,0-6.47-1.8,108.88,108.88,0,0,0-16.34-1.09c-5.92,0-15.42.46-22,.84l3-43L39,0l4.62,59.45a99.18,99.18,0,0,1,10.57-1.63S60.38,27.71,67.48,25.6c5.79-1.74,12.41,25.59,13.4,29.79l.13.52s43.48-3.69,46.12,4.2c3.13,9.37-35.6,22.77-35.6,22.77s24.72,67.94,16.34,71.87C103.14,157,86,131.92,76.55,117.47c-3.7-5.76-6.24-9.85-6.24-9.85-5.41,6.3-13,14.28-21.25,22.32l3.6,46.59L73.79,158l2.35-34.6c2.32,3.47,4.91,7.29,7.55,11a184.09,184.09,0,0,0,12.88,16.7,41.59,41.59,0,0,0,5.68,5.42,10.67,10.67,0,0,0,3,1.59,5.6,5.6,0,0,0,4.18-.12c3.16-1.47,3.65-5.17,3.78-7.24a46.34,46.34,0,0,0-.8-9.48,217.69,217.69,0,0,0-6.11-24.92C102.5,103.48,98.2,90.89,96.14,85c3.69-1.42,9.87-3.86,15.94-6.79a69.47,69.47,0,0,0,13.07-7.82c3-2.42,7-6.54,5.38-11.44"/><path class="cls-1" d="M2.53,75.46c-.56,8.88,38.85,9.49,43,9,0,0-50.69,72.78-45.1,81.21,3.32,5,27.94-15.54,48.63-35.74L43.65,59.45c-16.16,3.14-40.71,10.13-41.12,16"/></g></g></svg>